<svg xmlns="http://www.w3.org/2000/svg" width="20" height="20" viewBox="0 0 448 416">
  <g id="Group_58" data-name="Group 58" transform="translate(-32 -48)">
    <path id="Path_103" data-name="Path 103" d="M408,64H104a56.16,56.16,0,0,0-56,56V312a56.16,56.16,0,0,0,56,56h40v80l93.72-78.14a8,8,0,0,1,5.13-1.86H408a56.16,56.16,0,0,0,56-56V120a56.16,56.16,0,0,0-56-56Z" fill="none" stroke="#fff" stroke-linejoin="round" stroke-width="32"/>
    <circle id="Ellipse_20" data-name="Ellipse 20" cx="32" cy="32" r="32" transform="translate(128 184)" fill="#fff"/>
    <circle id="Ellipse_21" data-name="Ellipse 21" cx="32" cy="32" r="32" transform="translate(224 184)" fill="#fff"/>
    <circle id="Ellipse_22" data-name="Ellipse 22" cx="32" cy="32" r="32" transform="translate(320 184)" fill="#fff"/>
  </g>
</svg>
