<!-- <svg xmlns="http://www.w3.org/2000/svg" xmlns:xlink="http://www.w3.org/1999/xlink" width="497.99" height="512" viewBox="0 0 497.99 512">
  <defs>
    <linearGradient id="linear-gradient" x1="0.5" y1="1" x2="0.5" gradientUnits="objectBoundingBox">
      <stop offset="0" stop-color="#eff2f4"/>
      <stop offset="1" stop-color="#eafcff"/>
    </linearGradient>
  </defs>
  <g id="Group_61" data-name="Group 61" transform="translate(-7.006)">
    <path id="Path_112" data-name="Path 112" d="M181,49.507A11.573,11.573,0,1,1,169.436,61.08,11.573,11.573,0,0,1,181,49.507Zm0,39.862a28.29,28.29,0,1,0-28.271-28.283A28.29,28.29,0,0,0,181,89.369Zm-54.812-11.5,8.776,2.214-4.652,7.859a8.319,8.319,0,0,0,1.278,10.144l12.332,12.359a8.364,8.364,0,0,0,10.171,1.286l7.789-4.644,2.249,8.858a8.273,8.273,0,0,0,8.1,6.216H189.67a8.267,8.267,0,0,0,8.092-6.216L200,107.087l7.834,4.715A8.363,8.363,0,0,0,218,110.515l12.332-12.358A8.314,8.314,0,0,0,231.6,88.012l-4.622-7.787,8.827-2.286a8.219,8.219,0,0,0,6.288-8.072V52.436a8.487,8.487,0,0,0-6.288-8.144l-8.776-2.215,4.652-7.858A8.32,8.32,0,0,0,230.4,24.075l-12.33-12.288A8.367,8.367,0,0,0,207.9,10.5l-7.788,4.643-2.249-8.858A8.416,8.416,0,0,0,189.771,0H172.33a8.414,8.414,0,0,0-8.093,6.287L162,15.074l-7.833-4.644A8.359,8.359,0,0,0,144,11.716L131.663,24a8.317,8.317,0,0,0-1.275,10.145L135.011,42l-8.826,2.214a8.428,8.428,0,0,0-6.29,8.144v17.36a8.3,8.3,0,0,0,6.29,8.144Zm5.7,109.731a19.55,19.55,0,1,0,13.84,5.731,19.539,19.539,0,0,0-13.84-5.731Zm0,55.793a36.255,36.255,0,1,1,36.269-36.219,36.255,36.255,0,0,1-36.269,36.219Zm-76.012-16a8.34,8.34,0,0,1-6.288-8.072v-24.5a8.2,8.2,0,0,1,6.288-8L70.109,183.1c.371-.929.764-1.929,1.18-2.787L63.83,167.666a8.317,8.317,0,0,1,1.278-10.144L82.4,140.234a8.362,8.362,0,0,1,10.171-1.286l12.549,7.5a24.675,24.675,0,0,1,2.944-1.215l3.589-14.073a8.258,8.258,0,0,1,8.092-6.287H144.2a8.259,8.259,0,0,1,8.1,6.287l3.586,14.073a25.64,25.64,0,0,1,3.025,1.215l12.426-7.43a8.28,8.28,0,0,1,10.172,1.357l17.287,17.217a8.429,8.429,0,0,1,1.275,10.216l-7.406,12.5c.444.929.863,2,1.256,3l13.992,3.643a8.207,8.207,0,0,1,6.293,8v24.5a8.347,8.347,0,0,1-6.293,8.072L193.8,231.167c-.393.928-.806,1.928-1.241,2.928l7.4,12.5a8.325,8.325,0,0,1-1.276,10.144l-17.291,17.3a8.367,8.367,0,0,1-10.174,1.286l-12.6-7.429c-.951.357-1.914.714-2.882,1.071l-3.6,14.216a8.27,8.27,0,0,1-8.092,6.216H119.591a8.267,8.267,0,0,1-8.093-6.216l-3.641-14.287a22.5,22.5,0,0,1-2.794-1.215l-12.607,7.5A8.262,8.262,0,0,1,82.287,273.9L65,256.678a8.425,8.425,0,0,1-1.275-10.216l7.52-12.716c-.4-.857-.789-1.857-1.152-2.714L55.88,227.388Zm291.2-105.014a33.933,33.933,0,1,0,33.9,33.862,33.933,33.933,0,0,0-33.9-33.862Zm0,84.511a50.578,50.578,0,1,1,50.6-50.649,50.578,50.578,0,0,1-50.6,50.649Zm-86.89-91.517L247.753,94.442a8.421,8.421,0,0,1,1.275-10.216L275.2,58.079a8.262,8.262,0,0,1,10.169-1.285L306.3,69.224a73.249,73.249,0,0,1,8.316-3.429L320.6,42.3a8.329,8.329,0,0,1,8.091-6.286h37a8.337,8.337,0,0,1,8.1,6.286l5.983,23.5c2.86,1.072,5.677,2.143,8.433,3.5l20.745-12.287a8.356,8.356,0,0,1,10.175,1.214l26.162,26.147a8.434,8.434,0,0,1,1.278,10.215L434.21,115.373c1.3,2.786,2.464,5.644,3.493,8.43l23.358,6a8.3,8.3,0,0,1,6.289,8.143v37a8.2,8.2,0,0,1-6.289,8l-23.519,6.072c-1.033,2.857-2.2,5.572-3.494,8.358l12.352,20.8a8.307,8.307,0,0,1-1.277,10.144l-26.165,26.218a8.35,8.35,0,0,1-10.171,1.214L387.8,243.319a86.925,86.925,0,0,1-8.236,3.358l-6.007,23.574a8.4,8.4,0,0,1-8.1,6.358h-37a8.4,8.4,0,0,1-8.1-6.358L314.3,246.534c-2.737-1.072-5.441-2.144-8.09-3.429l-21.015,12.5a8.452,8.452,0,0,1-10.17-1.214L248.86,228.173a8.418,8.418,0,0,1-1.275-10.216l12.527-21q-1.854-4.072-3.343-8.145l-23.684-6.072a8.22,8.22,0,0,1-6.287-8.072v-37a8.281,8.281,0,0,1,6.287-8.073l23.709-6.072a88.022,88.022,0,0,1,3.39-8.144ZM500.22,288.9a15.953,15.953,0,0,0,.466-22.289l-1.11-1.214a15.967,15.967,0,0,0-21.49-1.929l-101.937,76.51a31.626,31.626,0,0,1,3.717,23.36l-.167.643a31.893,31.893,0,0,1-37.544,24.075L241,366.621a8.361,8.361,0,1,1,3.464-16.359l101.155,21.431a15.106,15.106,0,0,0,17.786-11.358l.168-.715a15.043,15.043,0,0,0-1.954-11.358,14.726,14.726,0,0,0-9.379-6.644l-142-32.29c-18.959-4.358-36.645-.857-52.571,10.287L88.512,368.122l54.028,81.3,36.26-27.579a7.853,7.853,0,0,1,6.217-1.643l146.477,20.36a28.023,28.023,0,0,0,24.325-8.144ZM80.841,512,7.006,400.769l57.725-38.291,73.836,111.158Z" fill-rule="evenodd" fill="url(#linear-gradient)"/>
  </g>
</svg> -->

<svg xmlns="http://www.w3.org/2000/svg" xmlns:xlink="http://www.w3.org/1999/xlink" width="497.99" height="512" viewBox="0 0 497.99 512">
  <defs>
    <linearGradient id="linear-gradient" x1="0.5" y1="1" x2="0.5" gradientUnits="objectBoundingBox">
      <stop offset="0" stop-color="#227186"/>
      <stop offset="1" stop-color="#24697a"/>
    </linearGradient>
  </defs>
  <g id="Group_66" data-name="Group 66" transform="translate(-7.006)">
    <path id="Path_112" data-name="Path 112" d="M181,49.507A11.573,11.573,0,1,1,169.436,61.08,11.573,11.573,0,0,1,181,49.507Zm0,39.862a28.29,28.29,0,1,0-28.271-28.283A28.29,28.29,0,0,0,181,89.369Zm-54.812-11.5,8.776,2.214-4.652,7.859a8.319,8.319,0,0,0,1.278,10.144l12.332,12.359a8.364,8.364,0,0,0,10.171,1.286l7.789-4.644,2.249,8.858a8.273,8.273,0,0,0,8.1,6.216H189.67a8.267,8.267,0,0,0,8.092-6.216L200,107.087l7.834,4.715A8.363,8.363,0,0,0,218,110.515l12.332-12.358A8.314,8.314,0,0,0,231.6,88.012l-4.622-7.787,8.827-2.286a8.219,8.219,0,0,0,6.288-8.072V52.436a8.487,8.487,0,0,0-6.288-8.144l-8.776-2.215,4.652-7.858A8.32,8.32,0,0,0,230.4,24.075l-12.33-12.288A8.367,8.367,0,0,0,207.9,10.5l-7.788,4.643-2.249-8.858A8.416,8.416,0,0,0,189.771,0H172.33a8.414,8.414,0,0,0-8.093,6.287L162,15.074l-7.833-4.644A8.359,8.359,0,0,0,144,11.716L131.663,24a8.317,8.317,0,0,0-1.275,10.145L135.011,42l-8.826,2.214a8.428,8.428,0,0,0-6.29,8.144v17.36a8.3,8.3,0,0,0,6.29,8.144Zm5.7,109.731a19.55,19.55,0,1,0,13.84,5.731,19.539,19.539,0,0,0-13.84-5.731Zm0,55.793a36.255,36.255,0,1,1,36.269-36.219,36.255,36.255,0,0,1-36.269,36.219Zm-76.012-16a8.34,8.34,0,0,1-6.288-8.072v-24.5a8.2,8.2,0,0,1,6.288-8L70.109,183.1c.371-.929.764-1.929,1.18-2.787L63.83,167.666a8.317,8.317,0,0,1,1.278-10.144L82.4,140.234a8.362,8.362,0,0,1,10.171-1.286l12.549,7.5a24.675,24.675,0,0,1,2.944-1.215l3.589-14.073a8.258,8.258,0,0,1,8.092-6.287H144.2a8.259,8.259,0,0,1,8.1,6.287l3.586,14.073a25.64,25.64,0,0,1,3.025,1.215l12.426-7.43a8.28,8.28,0,0,1,10.172,1.357l17.287,17.217a8.429,8.429,0,0,1,1.275,10.216l-7.406,12.5c.444.929.863,2,1.256,3l13.992,3.643a8.207,8.207,0,0,1,6.293,8v24.5a8.347,8.347,0,0,1-6.293,8.072L193.8,231.167c-.393.928-.806,1.928-1.241,2.928l7.4,12.5a8.325,8.325,0,0,1-1.276,10.144l-17.291,17.3a8.367,8.367,0,0,1-10.174,1.286l-12.6-7.429c-.951.357-1.914.714-2.882,1.071l-3.6,14.216a8.27,8.27,0,0,1-8.092,6.216H119.591a8.267,8.267,0,0,1-8.093-6.216l-3.641-14.287a22.5,22.5,0,0,1-2.794-1.215l-12.607,7.5A8.262,8.262,0,0,1,82.287,273.9L65,256.678a8.425,8.425,0,0,1-1.275-10.216l7.52-12.716c-.4-.857-.789-1.857-1.152-2.714L55.88,227.388Zm291.2-105.014a33.933,33.933,0,1,0,33.9,33.862,33.933,33.933,0,0,0-33.9-33.862Zm0,84.511a50.578,50.578,0,1,1,50.6-50.649,50.578,50.578,0,0,1-50.6,50.649Zm-86.89-91.517L247.753,94.442a8.421,8.421,0,0,1,1.275-10.216L275.2,58.079a8.262,8.262,0,0,1,10.169-1.285L306.3,69.224a73.249,73.249,0,0,1,8.316-3.429L320.6,42.3a8.329,8.329,0,0,1,8.091-6.286h37a8.337,8.337,0,0,1,8.1,6.286l5.983,23.5c2.86,1.072,5.677,2.143,8.433,3.5l20.745-12.287a8.356,8.356,0,0,1,10.175,1.214l26.162,26.147a8.434,8.434,0,0,1,1.278,10.215L434.21,115.373c1.3,2.786,2.464,5.644,3.493,8.43l23.358,6a8.3,8.3,0,0,1,6.289,8.143v37a8.2,8.2,0,0,1-6.289,8l-23.519,6.072c-1.033,2.857-2.2,5.572-3.494,8.358l12.352,20.8a8.307,8.307,0,0,1-1.277,10.144l-26.165,26.218a8.35,8.35,0,0,1-10.171,1.214L387.8,243.319a86.925,86.925,0,0,1-8.236,3.358l-6.007,23.574a8.4,8.4,0,0,1-8.1,6.358h-37a8.4,8.4,0,0,1-8.1-6.358L314.3,246.534c-2.737-1.072-5.441-2.144-8.09-3.429l-21.015,12.5a8.452,8.452,0,0,1-10.17-1.214L248.86,228.173a8.418,8.418,0,0,1-1.275-10.216l12.527-21q-1.854-4.072-3.343-8.145l-23.684-6.072a8.22,8.22,0,0,1-6.287-8.072v-37a8.281,8.281,0,0,1,6.287-8.073l23.709-6.072a88.022,88.022,0,0,1,3.39-8.144ZM500.22,288.9a15.953,15.953,0,0,0,.466-22.289l-1.11-1.214a15.967,15.967,0,0,0-21.49-1.929l-101.937,76.51a31.626,31.626,0,0,1,3.717,23.36l-.167.643a31.893,31.893,0,0,1-37.544,24.075L241,366.621a8.361,8.361,0,1,1,3.464-16.359l101.155,21.431a15.106,15.106,0,0,0,17.786-11.358l.168-.715a15.043,15.043,0,0,0-1.954-11.358,14.726,14.726,0,0,0-9.379-6.644l-142-32.29c-18.959-4.358-36.645-.857-52.571,10.287L88.512,368.122l54.028,81.3,36.26-27.579a7.853,7.853,0,0,1,6.217-1.643l146.477,20.36a28.023,28.023,0,0,0,24.325-8.144ZM80.841,512,7.006,400.769l57.725-38.291,73.836,111.158Z" fill-rule="evenodd" fill="url(#linear-gradient)"/>
  </g>
</svg>


