<!-- <svg xmlns="http://www.w3.org/2000/svg" width="85.115" height="82.033" viewBox="0 0 85.115 82.033">
  <g id="Group_63" data-name="Group 63" transform="translate(-7.443 -8.984)">
    <g id="Group_62" data-name="Group 62">
      <path id="Path_113" data-name="Path 113" d="M88.05,40.89a6.977,6.977,0,0,1-1.91-5.88l.28-1.98A10.988,10.988,0,0,0,77.4,20.61l-1.97-.35a6.994,6.994,0,0,1-5-3.63l-.94-1.76a10.985,10.985,0,0,0-14.6-4.74l-1.8.87a6.991,6.991,0,0,1-6.18,0l-1.79-.88a10.994,10.994,0,0,0-14.6,4.74l-.94,1.76a6.987,6.987,0,0,1-5,3.63l-1.97.35a10.988,10.988,0,0,0-9.02,12.42L13.87,35a6.977,6.977,0,0,1-1.91,5.88l-1.39,1.43a10.981,10.981,0,0,0,0,15.35l1.39,1.44a6.977,6.977,0,0,1,1.91,5.88l-.28,1.98a10.988,10.988,0,0,0,9.02,12.42l1.97.35a6.994,6.994,0,0,1,5,3.63l.94,1.76a10.985,10.985,0,0,0,14.6,4.74L46.91,89a6.991,6.991,0,0,1,6.18,0l1.79.88a10.994,10.994,0,0,0,14.6-4.74l.94-1.76a6.987,6.987,0,0,1,5-3.63l1.97-.35a10.988,10.988,0,0,0,9.02-12.42L86.13,65a6.977,6.977,0,0,1,1.91-5.88l1.39-1.43a10.981,10.981,0,0,0,0-15.35ZM86.56,54.9l-1.39,1.43a10.984,10.984,0,0,0-3,9.22l.28,1.98a7.006,7.006,0,0,1-5.75,7.92l-1.97.35a10.936,10.936,0,0,0-7.84,5.7l-.94,1.76a7.013,7.013,0,0,1-9.31,3.03l-1.79-.88a10.951,10.951,0,0,0-9.7,0l-1.79.88a7,7,0,0,1-9.31-3.03l-.94-1.76a10.974,10.974,0,0,0-7.84-5.7l-1.97-.35a7.006,7.006,0,0,1-5.75-7.92l.28-1.98a10.942,10.942,0,0,0-3-9.22l-1.39-1.44a7,7,0,0,1,0-9.79l1.39-1.43a10.984,10.984,0,0,0,3-9.22l-.28-1.98a7.006,7.006,0,0,1,5.75-7.92l1.97-.35a10.936,10.936,0,0,0,7.84-5.7l.94-1.76a7,7,0,0,1,6.2-3.75,7.1,7.1,0,0,1,3.11.72l1.79.88a10.951,10.951,0,0,0,9.7,0l1.79-.88a7,7,0,0,1,9.31,3.03l.94,1.76a10.974,10.974,0,0,0,7.84,5.7l1.97.35a7.006,7.006,0,0,1,5.75,7.92l-.28,1.98a10.942,10.942,0,0,0,3,9.22l1.39,1.44a7,7,0,0,1,0,9.79Z" fill="#fff"/>
      <path id="Path_114" data-name="Path 114" d="M65.91,34.09a2,2,0,0,0-2.83,0L34.09,63.08a2,2,0,1,0,2.82,2.83L65.9,36.92a2,2,0,0,0,.01-2.83Z" fill="#fff"/>
      <path id="Path_115" data-name="Path 115" d="M41.87,44.71a8.5,8.5,0,1,0-6.01-2.49,8.464,8.464,0,0,0,6.01,2.49ZM38.69,33.03a4.49,4.49,0,1,1-1.32,3.18A4.483,4.483,0,0,1,38.69,33.03Z" fill="#fff"/>
      <path id="Path_116" data-name="Path 116" d="M52.12,57.78a8.5,8.5,0,1,0,14.51,6.01,8.5,8.5,0,0,0-14.51-6.01Zm9.19,9.19a4.49,4.49,0,1,1,1.32-3.18A4.509,4.509,0,0,1,61.31,66.97Z" fill="#fff"/>
    </g>
  </g>
</svg> -->

<svg xmlns="http://www.w3.org/2000/svg" width="85.115" height="82.039" viewBox="0 0 85.115 82.039">
  <g id="Group_63" data-name="Group 63" transform="translate(-7.442 -8.981)">
    <g id="Group_62" data-name="Group 62">
      <path id="Path_113" data-name="Path 113" d="M88.05,40.89a6.977,6.977,0,0,1-1.91-5.88l.28-1.98A10.988,10.988,0,0,0,77.4,20.61l-1.97-.35a6.994,6.994,0,0,1-5-3.63l-.94-1.76a10.985,10.985,0,0,0-14.6-4.74l-1.8.87a6.991,6.991,0,0,1-6.18,0l-1.79-.88a10.994,10.994,0,0,0-14.6,4.74l-.94,1.76a6.987,6.987,0,0,1-5,3.63l-1.97.35a10.988,10.988,0,0,0-9.02,12.42L13.87,35a6.977,6.977,0,0,1-1.91,5.88l-1.39,1.43a10.981,10.981,0,0,0,0,15.35l1.39,1.44a6.977,6.977,0,0,1,1.91,5.88l-.28,1.98a10.988,10.988,0,0,0,9.02,12.42l1.97.35a6.994,6.994,0,0,1,5,3.63l.94,1.76a10.985,10.985,0,0,0,14.6,4.74L46.91,89a6.991,6.991,0,0,1,6.18,0l1.79.88a10.994,10.994,0,0,0,14.6-4.74l.94-1.76a6.987,6.987,0,0,1,5-3.63l1.97-.35a10.988,10.988,0,0,0,9.02-12.42L86.13,65a6.977,6.977,0,0,1,1.91-5.88l1.39-1.43a10.981,10.981,0,0,0,0-15.35ZM86.56,54.9l-1.39,1.43a10.984,10.984,0,0,0-3,9.22l.28,1.98a7.006,7.006,0,0,1-5.75,7.92l-1.97.35a10.936,10.936,0,0,0-7.84,5.7l-.94,1.76a7.013,7.013,0,0,1-9.31,3.03l-1.79-.88a10.951,10.951,0,0,0-9.7,0l-1.79.88a7,7,0,0,1-9.31-3.03l-.94-1.76a10.974,10.974,0,0,0-7.84-5.7l-1.97-.35a7.006,7.006,0,0,1-5.75-7.92l.28-1.98a10.942,10.942,0,0,0-3-9.22l-1.39-1.44a7,7,0,0,1,0-9.79l1.39-1.43a10.984,10.984,0,0,0,3-9.22l-.28-1.98a7.006,7.006,0,0,1,5.75-7.92l1.97-.35a10.936,10.936,0,0,0,7.84-5.7l.94-1.76a7,7,0,0,1,6.2-3.75,7.1,7.1,0,0,1,3.11.72l1.79.88a10.951,10.951,0,0,0,9.7,0l1.79-.88a7,7,0,0,1,9.31,3.03l.94,1.76a10.974,10.974,0,0,0,7.84,5.7l1.97.35a7.006,7.006,0,0,1,5.75,7.92l-.28,1.98a10.942,10.942,0,0,0,3,9.22l1.39,1.44a7,7,0,0,1,0,9.79Z" fill="#155565"/>
      <path id="Path_114" data-name="Path 114" d="M65.91,34.09a2,2,0,0,0-2.83,0L34.09,63.08a2,2,0,1,0,2.82,2.83L65.9,36.92a2,2,0,0,0,.01-2.83Z" fill="#155565"/>
      <path id="Path_115" data-name="Path 115" d="M41.87,44.71a8.5,8.5,0,1,0-6.01-2.49,8.5,8.5,0,0,0,6.01,2.49ZM38.69,33.03a4.49,4.49,0,1,1-1.32,3.18,4.49,4.49,0,0,1,1.32-3.18Z" fill="#155565"/>
      <path id="Path_116" data-name="Path 116" d="M52.12,57.78a8.5,8.5,0,1,0,9.263-1.842A8.5,8.5,0,0,0,52.12,57.78Zm9.19,9.19a4.49,4.49,0,1,1,1.32-3.18,4.49,4.49,0,0,1-1.32,3.18Z" fill="#155565"/>
    </g>
  </g>
</svg>
