<svg id="Group_65" data-name="Group 65" xmlns="http://www.w3.org/2000/svg" width="512" height="512" viewBox="0 0 512 512">
  <path id="Path_121" data-name="Path 121" d="M166,196a90,90,0,1,0,90-90A90.1,90.1,0,0,0,166,196Zm160,0a70,70,0,1,1-70-70A70.079,70.079,0,0,1,326,196Z" fill="#165766"/>
  <path id="Path_123" data-name="Path 123" d="M10,0A10,10,0,1,1,0,10,10,10,0,0,1,10,0Z" transform="translate(430 82)" fill="#165766"/>
  <path id="Path_122" data-name="Path 122" d="M256,512c141.9,0,256-114.927,256-256a255.745,255.745,0,0,0-37.031-132.782,10,10,0,1,0-17.1,10.38A235.75,235.75,0,0,1,492,256c0,68.428-28.771,131.9-79.476,176.683a160.032,160.032,0,0,0-313.039.009C48.774,387.9,20,324.429,20,256,20,125.869,125.869,20,256,20A233.786,233.786,0,0,1,400.716,69.5,10,10,0,1,0,412.985,53.7,256.246,256.246,0,0,0,74.937,74.944,254.353,254.353,0,0,0,0,256C0,397.429,114.459,512,256,512Zm0-186A139.336,139.336,0,0,1,394.722,447.007a236.326,236.326,0,0,1-277.433,0A139.308,139.308,0,0,1,256,326Z" fill="#165766"/>
</svg>
