<?xml version="1.0" encoding="iso-8859-1"?>
<!-- Generator: Adobe Illustrator 16.0.0, SVG Export Plug-In . SVG Version: 6.00 Build 0)  -->
<!DOCTYPE svg PUBLIC "-//W3C//DTD SVG 1.1//EN" "http://www.w3.org/Graphics/SVG/1.1/DTD/svg11.dtd">
<svg version="1.1" id="Capa_1" xmlns="http://www.w3.org/2000/svg" xmlns:xlink="http://www.w3.org/1999/xlink" x="0px" y="0px"
	 width="28.335px" height="28.336px" viewBox="0 0 28.335 28.336" style="enable-background:new 0 0 28.335 28.336;"
	 xml:space="preserve">
<g>
	<path d="M28.327,4.238v1.927h-3.854v3.852h-1.927V6.165h-3.853V4.238h3.853V0.384h1.927v3.854H28.327z M16.158,1.958h-2.192
		c1.548,0.886,2.369,2.71,2.369,4.722c0,1.847-1.021,3.334-2.467,4.464c-1.41,1.102-1.678,1.563-1.678,2.5
		c0,0.799,1.686,1.991,2.46,2.572c2.695,2.022,3.243,3.295,3.243,5.825c0,3.156-3.403,6.295-8.935,6.295
		c-4.854,0-8.948-1.975-8.948-5.131c0-3.205,3.396-6.543,8.25-6.543c0.529,0,1.014-0.016,1.515-0.016
		c-0.664-0.646-1.199-1.201-1.199-2.177c0-0.58,0.184-1.133,0.442-1.629c-0.263,0.019-0.532,0.035-0.81,0.035
		c-3.986,0-6.309-2.8-6.309-6.313C1.898,3.125,5.432,0,9.669,0c2.185,0,8.352,0,8.352,0L16.158,1.958z M11.532,17.996
		c-0.659-0.215-1.391-0.342-2.172-0.35c-3.354-0.037-6.196,2.119-6.196,4.619c0,2.551,2.423,4.672,5.775,4.672
		c4.717,0,6.36-1.992,6.36-4.543c0-0.31-0.039-0.607-0.106-0.898C14.821,20.053,13.356,19.262,11.532,17.996z M12.979,6.806
		c-0.387-2.956-2.312-5.381-4.563-5.45c-2.25-0.066-3.763,2.196-3.37,5.152c0.388,2.956,2.525,5.021,4.777,5.09
		C12.071,11.664,13.365,9.762,12.979,6.806z"/>
</g>
<g>
</g>
<g>
</g>
<g>
</g>
<g>
</g>
<g>
</g>
<g>
</g>
<g>
</g>
<g>
</g>
<g>
</g>
<g>
</g>
<g>
</g>
<g>
</g>
<g>
</g>
<g>
</g>
<g>
</g>
</svg>
