<svg xmlns="http://www.w3.org/2000/svg" xmlns:xlink="http://www.w3.org/1999/xlink" width="1920" height="399.008" viewBox="0 0 1920 399.008">
  <defs>
    <linearGradient id="linear-gradient" x1="0.174" y1="0.584" x2="0.94" y2="0.263" gradientUnits="objectBoundingBox">
      <stop offset="0" stop-color="#fff"/>
      <stop offset="0.507" stop-color="#d7dee0"/>
      <stop offset="1" stop-color="#114f5e"/>
    </linearGradient>
  </defs>
  <rect id="Rectangle_98" data-name="Rectangle 98" width="1920" height="399.008" fill="#186d80"/>
  <g id="Layer_2" data-name="Layer 2" transform="matrix(0.921, -0.391, 0.391, 0.921, 160.2, 60.535)" opacity="0.09">
    <g id="graphics" transform="translate(-70.114 32.151)">
      <path id="Path_62" data-name="Path 62" d="M26.223,93.811C17.489,88.9,9.9,80.308,8.788,71.274,6.775,55.193,16.552,43.093,29,37.514,43.885,30.86,33.953,35.623,90.893,19.8c27.344-7.6,29.1-14.7,28.481-19.8,7.392,5.107,9.666,32.945-3.15,41.318C103.059,49.908,76.8,51.71,43.813,61.6,14.81,70.3,19.1,86.324,26.223,93.811Z" transform="translate(-3.81)" fill="url(#linear-gradient)"/>
      <path id="Path_63" data-name="Path 63" d="M16.574,147.256a37.625,37.625,0,0,1,8.2-3.848c41.257-9.982,44.873-9.771,58.564-13.309,37.3-9.571,32.823-17.545,33.771-20.729,6.882,7.763,7,31.947-5.756,39.206-15.46,8.834-42.671,11.706-77.147,20.767-11.218,2.95-17.784,6.466-22.692,10.63C6.06,184.6,4.569,191.358,8.739,197.031c3.649,4.958,13.414,4.148,24.233,2.556a484.1,484.1,0,0,0,50.357-10.708c30.7-8.978,32.823-17.545,33.771-20.729,6.882,7.763,7,31.947-5.756,39.211-10.1,5.756-19.7,9.067-40.481,10.386-15.233.965-42.9,1.874-56.452-12.987-1.32-1.442-11.861-9.871-14.041-24.4C-1.653,166.875,5.351,154.282,16.574,147.256Z" transform="translate(-0.023 -48.721)" fill="url(#linear-gradient)"/>
      <path id="Path_64" data-name="Path 64" d="M62.837,137.073h0c-12.355,2.817-24.289,5.706-24.289,5.706l-.61.211c-.588-.349-1.165-.71-1.73-1.109-7.115-7.486-11.4-23.512,17.6-32.207q3-.9,5.928-1.714C51.613,111.454,40.134,130.269,62.837,137.073Z" transform="translate(-13.812 -48.092)" fill="url(#linear-gradient)"/>
      <path id="Path_65" data-name="Path 65" d="M46.511,242.629a21.144,21.144,0,0,0,1.714,1.3c-3.466.71-6.893,1.336-10.17,1.819-10.819,1.592-20.584,2.4-24.233-2.556-4.176-5.673-2.684-12.433,2.773-17.057C25.605,218.484,37.284,215.9,49.157,213,40.478,217.181,33.2,231.3,46.511,242.629Z" transform="translate(-5.101 -94.884)" fill="url(#linear-gradient)"/>
    </g>
    <g id="graphics-2" data-name="graphics" transform="translate(-70.115 32.151)">
      <path id="Path_62-2" data-name="Path 62" d="M26.223,93.811C17.489,88.9,9.9,80.308,8.788,71.274,6.775,55.193,16.552,43.093,29,37.514,43.885,30.86,33.953,35.623,90.893,19.8c27.344-7.6,29.1-14.7,28.481-19.8,7.392,5.107,9.666,32.945-3.15,41.318C103.059,49.908,76.8,51.71,43.813,61.6,14.81,70.3,19.1,86.324,26.223,93.811Z" transform="translate(-3.81)" fill="url(#linear-gradient)"/>
      <path id="Path_63-2" data-name="Path 63" d="M16.574,147.256a37.625,37.625,0,0,1,8.2-3.848c41.257-9.982,44.873-9.771,58.564-13.309,37.3-9.571,32.823-17.545,33.771-20.729,6.882,7.763,7,31.947-5.756,39.206-15.46,8.834-42.671,11.706-77.147,20.767-11.218,2.95-17.784,6.466-22.692,10.63C6.06,184.6,4.569,191.358,8.739,197.031c3.649,4.958,13.414,4.148,24.233,2.556a484.1,484.1,0,0,0,50.357-10.708c30.7-8.978,32.823-17.545,33.771-20.729,6.882,7.763,7,31.947-5.756,39.211-10.1,5.756-19.7,9.067-40.481,10.386-15.233.965-42.9,1.874-56.452-12.987-1.32-1.442-11.861-9.871-14.041-24.4C-1.653,166.875,5.351,154.282,16.574,147.256Z" transform="translate(-0.023 -48.721)" fill="url(#linear-gradient)"/>
      <path id="Path_64-2" data-name="Path 64" d="M62.837,137.073h0c-12.355,2.817-24.289,5.706-24.289,5.706l-.61.211c-.588-.349-1.165-.71-1.73-1.109-7.115-7.486-11.4-23.512,17.6-32.207q3-.9,5.928-1.714C51.613,111.454,40.134,130.269,62.837,137.073Z" transform="translate(-13.812 -48.092)" fill="url(#linear-gradient)"/>
      <path id="Path_65-2" data-name="Path 65" d="M46.511,242.629a21.144,21.144,0,0,0,1.714,1.3c-3.466.71-6.893,1.336-10.17,1.819-10.819,1.592-20.584,2.4-24.233-2.556-4.176-5.673-2.684-12.433,2.773-17.057C25.605,218.484,37.284,215.9,49.157,213,40.478,217.181,33.2,231.3,46.511,242.629Z" transform="translate(-5.101 -94.884)" fill="url(#linear-gradient)"/>
    </g>
  </g>
  <g id="Layer_2-2" data-name="Layer 2" transform="matrix(0.921, -0.391, 0.391, 0.921, 878.042, 204.535)" opacity="0.09">
    <g id="graphics-3" data-name="graphics" transform="translate(-70.115 32.151)">
      <path id="Path_62-3" data-name="Path 62" d="M19.29,57.063c-5.313-2.989-9.93-8.214-10.605-13.708-1.224-9.782,4.722-17.142,12.3-20.536,9.053-4.048,3.012-1.15,37.647-10.774C75.26,7.421,76.326,3.107,75.952,0c4.5,3.107,5.879,20.04-1.916,25.133-8.008,5.225-23.98,6.321-44.046,12.339C12.348,42.761,14.959,52.509,19.29,57.063Z" transform="translate(-5.657)" fill="url(#linear-gradient)"/>
      <path id="Path_63-3" data-name="Path 63" d="M10.091,132.415a22.887,22.887,0,0,1,4.985-2.341c25.1-6.072,27.3-5.943,35.624-8.1,22.691-5.822,19.966-10.673,20.542-12.609,4.186,4.722,4.257,19.433-3.5,23.848-9.4,5.373-25.956,7.121-46.927,12.632-6.824,1.794-10.818,3.933-13.8,6.466-3.316,2.813-4.223,6.925-1.687,10.376,2.22,3.016,8.16,2.523,14.741,1.555A294.47,294.47,0,0,0,50.7,157.734c18.674-5.461,19.966-10.673,20.542-12.609,4.186,4.722,4.257,19.433-3.5,23.851-6.146,3.5-11.985,5.515-24.624,6.318-9.266.587-26.1,1.14-34.338-7.9-.8-.877-7.215-6-8.541-14.842C-1,144.349,3.264,136.689,10.091,132.415Z" transform="translate(-0.023 -72.478)" fill="url(#linear-gradient)"/>
      <path id="Path_64-3" data-name="Path 64" d="M50.356,125.669h0c-7.515,1.714-14.774,3.471-14.774,3.471l-.371.128c-.358-.212-.708-.432-1.052-.675-4.328-4.554-6.935-14.3,10.7-19.591q1.825-.546,3.606-1.042C43.529,110.085,36.547,121.53,50.356,125.669Z" transform="translate(-20.536 -71.544)" fill="url(#linear-gradient)"/>
      <path id="Path_65-3" data-name="Path 65" d="M32.766,231.023a12.858,12.858,0,0,0,1.042.793c-2.108.432-4.193.813-6.186,1.106-6.581.968-12.521,1.461-14.741-1.555-2.54-3.451-1.633-7.563,1.687-10.376,5.481-4.655,12.585-6.227,19.807-7.991C29.1,215.543,24.667,224.131,32.766,231.023Z" transform="translate(-7.577 -141.152)" fill="url(#linear-gradient)"/>
    </g>
    <g id="graphics-4" data-name="graphics" transform="translate(-70.115 32.151)">
      <path id="Path_62-4" data-name="Path 62" d="M10.766,57.063C5.453,54.075.835,48.85.16,43.355c-1.224-9.782,4.722-17.142,12.3-20.536,9.053-4.048,3.012-1.15,37.647-10.774C66.736,7.421,67.8,3.107,67.427,0c4.5,3.107,5.879,20.04-1.916,25.133-8.008,5.225-23.98,6.321-44.046,12.339C3.824,42.761,6.434,52.509,10.766,57.063Z" transform="translate(2.867)" fill="url(#linear-gradient)"/>
      <path id="Path_63-4" data-name="Path 63" d="M10.068,23.045A22.886,22.886,0,0,1,15.053,20.7c25.1-6.072,27.3-5.943,35.624-8.1C73.368,6.787,70.642,1.936,71.219,0c4.186,4.722,4.257,19.433-3.5,23.848-9.4,5.373-25.956,7.121-46.927,12.632-6.824,1.794-10.818,3.933-13.8,6.466C3.672,45.76,2.765,49.872,5.3,53.322c2.22,3.016,8.16,2.523,14.741,1.555a294.466,294.466,0,0,0,30.631-6.513C69.347,42.9,70.639,37.691,71.216,35.755c4.186,4.722,4.257,19.433-3.5,23.851-6.146,3.5-11.985,5.515-24.624,6.318-9.266.587-26.1,1.14-34.338-7.9-.8-.877-7.215-6-8.541-14.842C-1.02,34.979,3.24,27.319,10.068,23.045Z" transform="translate(0 36.892)" fill="url(#linear-gradient)"/>
      <path id="Path_64-4" data-name="Path 64" d="M19.38,17.709h0C11.864,19.422,4.605,21.18,4.605,21.18l-.371.128c-.358-.213-.708-.432-1.052-.675-4.328-4.554-6.935-14.3,10.7-19.591Q15.71.5,17.491,0C12.552,2.125,5.57,13.57,19.38,17.709Z" transform="translate(10.441 36.416)" fill="url(#linear-gradient)"/>
      <path id="Path_65-4" data-name="Path 65" d="M21.345,18.023a12.858,12.858,0,0,0,1.042.793c-2.108.432-4.193.813-6.186,1.106C9.62,20.89,3.68,21.382,1.46,18.367-1.08,14.916-.172,10.8,3.147,7.991,8.628,3.336,15.732,1.764,22.954,0,17.675,2.543,13.246,11.131,21.345,18.023Z" transform="translate(3.845 71.848)" fill="url(#linear-gradient)"/>
    </g>
  </g>
  <g id="Layer_2-3" data-name="Layer 2" transform="matrix(0.921, -0.391, 0.391, 0.921, 1341.535, -7.997)" opacity="0.09">
    <g id="graphics-5" data-name="graphics" transform="translate(-70.115 32.151)">
      <path id="Path_62-5" data-name="Path 62" d="M20.09,61.306C14.383,58.095,9.422,52.482,8.7,46.578,7.381,36.069,13.77,28.161,21.906,24.516c9.727-4.349,3.236-1.236,40.447-11.575C80.222,7.973,81.367,3.338,80.965,0c4.831,3.338,6.316,21.53-2.058,27-8.6,5.613-25.762,6.791-47.321,13.256C12.632,45.94,15.437,56.413,20.09,61.306Z" transform="translate(-5.444)" fill="url(#linear-gradient)"/>
      <path id="Path_63-5" data-name="Path 63" d="M10.84,134.129a24.59,24.59,0,0,1,5.356-2.515c26.962-6.523,29.325-6.385,38.272-8.7,24.378-6.255,21.45-11.466,22.07-13.546,4.5,5.073,4.573,20.877-3.762,25.621-10.1,5.773-27.886,7.65-50.416,13.572-7.331,1.928-11.622,4.225-14.829,6.947-3.562,3.022-4.537,7.44-1.812,11.147,2.385,3.24,8.766,2.711,15.837,1.671a316.362,316.362,0,0,0,32.909-7c20.062-5.867,21.45-11.466,22.07-13.546,4.5,5.073,4.573,20.877-3.762,25.625-6.6,3.762-12.876,5.925-26.455,6.788-9.955.631-28.038,1.225-36.891-8.487-.862-.942-7.752-6.451-9.176-15.945C-1.072,146.95,3.5,138.72,10.84,134.129Z" transform="translate(-0.023 -69.735)" fill="url(#linear-gradient)"/>
      <path id="Path_64-5" data-name="Path 64" d="M51.8,126.986h0c-8.074,1.841-15.873,3.729-15.873,3.729l-.4.138c-.384-.228-.761-.464-1.131-.725-4.649-4.892-7.451-15.365,11.5-21.048q1.961-.587,3.874-1.12C44.463,110.243,36.961,122.539,51.8,126.986Z" transform="translate(-19.76 -68.836)" fill="url(#linear-gradient)"/>
      <path id="Path_65-5" data-name="Path 65" d="M34.353,232.363a13.818,13.818,0,0,0,1.12.852c-2.265.464-4.5.873-6.646,1.189-7.07,1.04-13.452,1.569-15.837-1.671-2.729-3.707-1.754-8.125,1.812-11.147,5.889-5,13.521-6.69,21.28-8.585C30.41,215.732,25.652,224.959,34.353,232.363Z" transform="translate(-7.291 -135.811)" fill="url(#linear-gradient)"/>
    </g>
    <g id="graphics-6" data-name="graphics" transform="translate(-70.115 32.151)">
      <path id="Path_62-6" data-name="Path 62" d="M11.566,61.306C5.858,58.095.9,52.482.172,46.578-1.143,36.069,5.246,28.161,13.382,24.516c9.727-4.349,3.236-1.236,40.447-11.575C71.7,7.973,72.843,3.338,72.44,0c4.831,3.338,6.316,21.53-2.058,27-8.6,5.613-25.762,6.791-47.321,13.256C4.108,45.94,6.913,56.413,11.566,61.306Z" transform="translate(3.081 0)" fill="url(#linear-gradient)"/>
      <path id="Path_63-6" data-name="Path 63" d="M10.816,24.759a24.588,24.588,0,0,1,5.356-2.515c26.962-6.523,29.325-6.385,38.272-8.7C78.823,7.291,75.894,2.08,76.514,0c4.5,5.073,4.573,20.877-3.762,25.621-10.1,5.773-27.886,7.65-50.416,13.572-7.331,1.928-11.622,4.225-14.829,6.947C3.945,49.162,2.97,53.58,5.7,57.287,8.08,60.527,14.462,60,21.532,58.957a316.36,316.36,0,0,0,32.909-7C74.5,46.093,75.891,40.494,76.51,38.413c4.5,5.073,4.573,20.877-3.762,25.625-6.6,3.762-12.876,5.925-26.455,6.788-9.955.631-28.038,1.225-36.891-8.487C8.54,61.4,1.651,55.888.227,46.393-1.1,37.58,3.481,29.35,10.816,24.759Z" transform="translate(0 39.635)" fill="url(#linear-gradient)"/>
      <path id="Path_64-6" data-name="Path 64" d="M20.821,19.026h0c-8.074,1.841-15.873,3.729-15.873,3.729l-.4.138c-.384-.228-.761-.464-1.131-.725C-1.231,17.275-4.032,6.8,14.917,1.12Q16.878.533,18.791,0C13.486,2.283,5.984,14.579,20.821,19.026Z" transform="translate(11.217 39.124)" fill="url(#linear-gradient)"/>
      <path id="Path_65-6" data-name="Path 65" d="M22.932,19.363a13.813,13.813,0,0,0,1.12.852c-2.265.464-4.5.873-6.646,1.189-7.07,1.04-13.452,1.569-15.837-1.671C-1.16,16.025-.185,11.607,3.381,8.585,9.27,3.584,16.9,1.9,24.66,0,18.989,2.732,14.231,11.959,22.932,19.363Z" transform="translate(4.13 77.189)" fill="url(#linear-gradient)"/>
    </g>
  </g>
  <g id="Layer_2-4" data-name="Layer 2" transform="matrix(0.921, -0.391, 0.391, 0.921, 1750.179, 163.759)" opacity="0.09">
    <g id="graphics-7" data-name="graphics" transform="translate(-70.114 32.151)">
      <path id="Path_62-7" data-name="Path 62" d="M26.756,96.637c-9-5.061-16.817-13.91-17.96-23.215-2.074-16.566,8-29.03,20.822-34.777C44.95,31.789,34.719,36.7,93.374,20.4,121.542,12.567,123.347,5.261,122.713,0c7.615,5.261,9.957,33.937-3.245,42.563-13.561,8.849-40.609,10.705-74.592,20.9C15,72.416,19.421,88.925,26.756,96.637Z" transform="translate(-3.668)" fill="url(#linear-gradient)"/>
      <path id="Path_63-7" data-name="Path 63" d="M17.073,148.4a38.761,38.761,0,0,1,8.443-3.964c42.5-10.282,46.225-10.065,60.329-13.71,38.427-9.86,33.812-18.074,34.789-21.353,7.089,8,7.209,32.909-5.929,40.387-15.926,9.1-43.957,12.059-79.471,21.393-11.556,3.039-18.32,6.661-23.375,10.951C6.242,186.864,4.706,193.828,9,199.672c3.759,5.107,13.818,4.273,24.963,2.633a498.687,498.687,0,0,0,51.874-11.031c31.624-9.248,33.812-18.074,34.789-21.353,7.089,8,7.209,32.909-5.929,40.392-10.408,5.929-20.3,9.34-41.7,10.7-15.692.994-44.2,1.931-58.152-13.378C13.486,206.149,2.626,197.467.381,182.5-1.7,168.608,5.511,155.635,17.073,148.4Z" transform="translate(-0.023 -46.893)" fill="url(#linear-gradient)"/>
      <path id="Path_64-7" data-name="Path 64" d="M63.8,137.95h0c-12.727,2.9-25.02,5.878-25.02,5.878l-.628.217c-.606-.36-1.2-.731-1.782-1.142-7.329-7.712-11.745-24.221,18.125-33.178q3.09-.925,6.107-1.765C52.234,111.559,40.41,130.941,63.8,137.95Z" transform="translate(-13.295 -46.289)" fill="url(#linear-gradient)"/>
      <path id="Path_65-7" data-name="Path 65" d="M47.569,243.521a21.777,21.777,0,0,0,1.765,1.342c-3.57.731-7.1,1.377-10.477,1.874-11.145,1.639-21.2,2.473-24.963-2.633-4.3-5.844-2.765-12.807,2.856-17.571C26.033,218.65,38.063,215.988,50.293,213,41.353,217.307,33.853,231.851,47.569,243.521Z" transform="translate(-4.91 -91.326)" fill="url(#linear-gradient)"/>
    </g>
    <g id="graphics-8" data-name="graphics" transform="translate(-70.115 32.151)">
      <path id="Path_62-8" data-name="Path 62" d="M18.231,96.637c-9-5.061-16.817-13.91-17.96-23.215-2.074-16.566,8-29.03,20.822-34.777,15.332-6.855,5.1-1.948,63.756-18.245C113.017,12.567,114.822,5.261,114.188,0c7.615,5.261,9.957,33.937-3.245,42.563-13.561,8.849-40.609,10.705-74.593,20.9C6.475,72.416,10.9,88.925,18.231,96.637Z" transform="translate(4.856)" fill="url(#linear-gradient)"/>
      <path id="Path_63-8" data-name="Path 63" d="M17.05,39.027a38.758,38.758,0,0,1,8.443-3.964C67.993,24.78,71.717,25,85.821,21.353,124.248,11.493,119.633,3.279,120.61,0c7.089,8,7.209,32.909-5.929,40.387-15.926,9.1-43.957,12.059-79.471,21.393C23.653,64.819,16.89,68.44,11.834,72.73,6.219,77.494,4.682,84.458,8.978,90.3c3.759,5.107,13.818,4.273,24.963,2.633A498.68,498.68,0,0,0,85.815,81.9c31.624-9.248,33.812-18.074,34.788-21.353,7.089,8,7.209,32.909-5.929,40.392-10.408,5.929-20.3,9.34-41.7,10.7-15.692.994-44.2,1.931-58.152-13.378C13.462,96.779,2.6,88.1.358,73.13-1.727,59.238,5.488,46.265,17.05,39.027Z" transform="translate(0 62.476)" fill="url(#linear-gradient)"/>
      <path id="Path_64-8" data-name="Path 64" d="M32.82,29.99h0C20.092,32.892,7.8,35.868,7.8,35.868l-.628.217c-.606-.36-1.2-.731-1.782-1.142C-1.94,27.231-6.356,10.722,23.514,1.765Q26.6.84,29.621,0C21.258,3.6,9.433,22.981,32.82,29.99Z" transform="translate(17.682 61.671)" fill="url(#linear-gradient)"/>
      <path id="Path_65-8" data-name="Path 65" d="M36.147,30.521a21.774,21.774,0,0,0,1.765,1.342c-3.57.731-7.1,1.377-10.477,1.874C16.291,35.377,6.232,36.211,2.473,31.1-1.829,25.26-.292,18.3,5.329,13.533,14.612,5.65,26.642,2.988,38.872,0,29.932,4.307,22.432,18.851,36.147,30.521Z" transform="translate(6.511 121.674)" fill="url(#linear-gradient)"/>
    </g>
  </g>
  <g id="Layer_2-5" data-name="Layer 2" transform="matrix(0.921, -0.391, 0.391, 0.921, 641.535, 107.073)" opacity="0.09">
    <g id="graphics-9" data-name="graphics" transform="translate(-70.115 32.151)">
      <path id="Path_62-9" data-name="Path 62" d="M15.364,36.252c-3.375-1.9-6.309-5.218-6.737-8.709-.778-6.215,3-10.89,7.811-13.046,5.752-2.572,1.914-.731,23.917-6.845C50.922,4.714,51.6,1.974,51.361,0c2.857,1.974,3.735,12.731-1.217,15.967-5.087,3.319-15.234,4.016-27.983,7.839C10.954,27.166,12.612,33.359,15.364,36.252Z" transform="translate(-6.703)" fill="url(#linear-gradient)"/>
      <path id="Path_63-9" data-name="Path 63" d="M6.419,124.011a14.541,14.541,0,0,1,3.167-1.487c15.943-3.857,17.341-3.776,22.632-5.143,14.416-3.7,12.684-6.78,13.051-8.01,2.659,3,2.7,12.345-2.224,15.151-5.975,3.414-16.49,4.524-29.813,8.025-4.335,1.14-6.872,2.5-8.769,4.108-2.107,1.787-2.683,4.4-1.071,6.592,1.41,1.916,5.184,1.6,9.365.988a187.077,187.077,0,0,0,19.46-4.138c11.863-3.469,12.684-6.78,13.051-8.01,2.659,3,2.7,12.345-2.224,15.153-3.9,2.224-7.614,3.5-15.643,4.014-5.887.373-16.58.724-21.815-5.019C5.074,145.676,1,142.418.158,136.8A12.941,12.941,0,0,1,6.419,124.011Z" transform="translate(-0.023 -85.933)" fill="url(#linear-gradient)"/>
      <path id="Path_64-9" data-name="Path 64" d="M43.289,119.21h0c-4.774,1.089-9.386,2.205-9.386,2.205l-.236.081c-.227-.135-.45-.274-.669-.429-2.749-2.893-4.406-9.086,6.8-12.446q1.159-.347,2.291-.662C38.951,109.31,34.516,116.581,43.289,119.21Z" transform="translate(-24.344 -84.825)" fill="url(#linear-gradient)"/>
      <path id="Path_65-9" data-name="Path 65" d="M24.981,224.45a8.17,8.17,0,0,0,.662.5c-1.339.274-2.664.516-3.93.7-4.181.615-7.955.928-9.365-.988-1.614-2.192-1.037-4.8,1.071-6.592,3.482-2.957,8-3.956,12.583-5.077C22.65,214.616,19.836,220.072,24.981,224.45Z" transform="translate(-8.979 -167.355)" fill="url(#linear-gradient)"/>
    </g>
    <g id="graphics-10" data-name="graphics" transform="translate(-70.115 32.151)">
      <path id="Path_62-10" data-name="Path 62" d="M6.839,36.252C3.464,34.354.531,31.034.1,27.543c-.778-6.215,3-10.89,7.811-13.046,5.752-2.572,1.914-.731,23.917-6.845C42.4,4.714,43.074,1.974,42.836,0c2.857,1.974,3.735,12.731-1.217,15.967-5.087,3.319-15.234,4.016-27.983,7.839C2.429,27.166,4.088,33.359,6.839,36.252Z" transform="translate(1.822 0)" fill="url(#linear-gradient)"/>
      <path id="Path_63-10" data-name="Path 63" d="M6.4,14.641a14.54,14.54,0,0,1,3.167-1.487C25.507,9.3,26.9,9.378,32.195,8.01,46.61,4.312,44.879,1.23,45.245,0c2.659,3,2.7,12.345-2.224,15.151-5.975,3.414-16.49,4.524-29.813,8.025-4.335,1.14-6.872,2.5-8.769,4.108-2.107,1.787-2.683,4.4-1.071,6.592,1.41,1.916,5.184,1.6,9.365.988a187.074,187.074,0,0,0,19.46-4.138c11.863-3.469,12.684-6.78,13.051-8.01,2.659,3,2.7,12.345-2.224,15.153-3.9,2.224-7.614,3.5-15.643,4.014-5.887.373-16.58.724-21.815-5.019C5.05,36.306.976,33.048.134,27.434A12.941,12.941,0,0,1,6.4,14.641Z" transform="translate(0 23.437)" fill="url(#linear-gradient)"/>
      <path id="Path_64-10" data-name="Path 64" d="M12.312,11.25h0c-4.774,1.089-9.386,2.205-9.386,2.205l-.236.081c-.227-.135-.45-.274-.669-.429C-.728,10.215-2.384,4.022,8.821.662Q9.98.315,11.112,0C7.975,1.35,3.539,8.621,12.312,11.25Z" transform="translate(6.633 23.135)" fill="url(#linear-gradient)"/>
      <path id="Path_65-10" data-name="Path 65" d="M13.56,11.45a8.168,8.168,0,0,0,.662.5c-1.339.274-2.664.516-3.93.7-4.181.615-7.955.928-9.365-.988C-.686,9.476-.11,6.864,2,5.077,5.481,2.119,9.994,1.121,14.582,0,11.229,1.616,8.415,7.072,13.56,11.45Z" transform="translate(2.442 45.645)" fill="url(#linear-gradient)"/>
    </g>
  </g>
</svg>
