<svg xmlns="http://www.w3.org/2000/svg" xmlns:xlink="http://www.w3.org/1999/xlink" data-name="Layer 1" width="350.52033" height="400.72373" viewBox="0 0 520.52033 575.72373"><path d="M637.26637,285.81572a10.85509,10.85509,0,0,1,7.88971,12.92233,10.413,10.413,0,0,1-.545,1.633l27.7671,25.75113L653.52257,330.554l-23.47735-25.13314a10.825,10.825,0,0,1-5.53458-12.00093,10.35947,10.35947,0,0,1,12.47988-7.674Q637.12891,285.77895,637.26637,285.81572Z" transform="translate(-339.73984 -162.13813)" fill="#a0616a"/><path d="M663.213,315.06654l-10.82775,14.6383,27.13151,25.65122a15.61912,15.61912,0,0,0,14.73492,3.801h0a14.96552,14.96552,0,0,0,11.10269-14.157l.71809-59.0455a16.13613,16.13613,0,0,0-14.94676-16.40023h0a15.30328,15.30328,0,0,0-16.43023,14.0865q-.01824.23746-.02908.4754a15.69875,15.69875,0,0,0,.00893,1.69127l3.29941,42.70726Z" transform="translate(-339.73984 -162.13813)" fill="#e6e6e6"/>

<path d="M776.85983,181.5274c34.54326,68.68508-34.1762,59.09863-44.57918,58.23171-20.03949-1.66995-37.34407,3.73441-35.47686-42.01207.82009-20.09221,22.83673-35.60891,42.94567-35.60891S767.82487,163.56247,776.85983,181.5274Z" transform="translate(-339.73984 -162.13813)" fill="#2f2e41"/>

<path d="M720.594,244.04128l-3.40157,17.00787L682.85983,272.5274l12.30106,92.83671-13.24265,60.02438c-3.41565,3.957-4.72113,7.94305-2.64209,11.97564l112.58368,1.16327c2.12024-4.05035,2.84571-8.03936,0-12l-5-8-5-12,1-5-2.52944-10.87181-1.92315-6.80477-3.24635-11.48671,20.19344-93.40348-35.98448-13.943-6.46093-20.97638Z" transform="translate(-339.73984 -162.13813)" fill="#e6e6e6"/><circle cx="393.39355" cy="45.43746" r="28.08891" fill="#a0616a"/>
<path d="M769.62471,196.81344c-3.37029,3.333-6.0871,5.60161-11.20322,5.60161-12.9397,2.9595-25.25391,4.668-36.13039,3.56637a13.4584,13.4584,0,0,0-1.167-8.07568,10.219,10.219,0,0,1-4.20121,7.27274,43.41493,43.41493,0,0,1-8.91588-2.76343,18.59712,18.59712,0,0,1-11.10054-3.65976c-5.48024-23.63874,15.25507-31.73311,36.77458-29.01629a40.98137,40.98137,0,0,1,7.62751-.72824C757.34783,169.01076,767.72018,179.03769,769.62471,196.81344Z" transform="translate(-339.73984 -162.13813)" fill="#2f2e41"/>
<path d="M753.97983,279.7074h-53a13,13,0,0,0,0,26h53a13,13,0,0,0,0-26Z" transform="translate(-339.73984 -162.13813)" fill="#1c849d"/>
<path d="M733.26637,291.81572a10.85509,10.85509,0,0,1,7.88971,12.92233,10.413,10.413,0,0,1-.545,1.633l27.7671,25.75113L749.52257,336.554l-23.47735-25.13314a10.825,10.825,0,0,1-5.53458-12.00093,10.35947,10.35947,0,0,1,12.47988-7.674Q733.12891,291.77895,733.26637,291.81572Z" transform="translate(-339.73984 -162.13813)" fill="#a0616a"/>
<path d="M759.213,321.06654l-10.82775,14.6383,27.13151,25.65122a15.61912,15.61912,0,0,0,14.73492,3.801h0a14.96552,14.96552,0,0,0,11.10269-14.157l.71809-59.0455a16.13613,16.13613,0,0,0-14.94676-16.40023h0a15.30328,15.30328,0,0,0-16.43023,14.0865q-.01824.23746-.02908.4754a15.69875,15.69875,0,0,0,.00893,1.69127l3.29941,42.70726Z" transform="translate(-339.73984 -162.13813)" fill="#e6e6e6"/>
</svg>