<svg xmlns="http://www.w3.org/2000/svg" xmlns:xlink="http://www.w3.org/1999/xlink" data-name="Layer 1" width="350.38063" height="350.49174" viewBox="0 0 865.38063 601.49174"><polygon points="187.512 586.351 200.985 586.351 207.395 534.384 187.51 534.385 187.512 586.351" fill="#a0616a"/><path d="M351.38534,731.20668l26.533-.00107h.00107a16.90978,16.90978,0,0,1,16.90888,16.90861v.54947l-43.4421.00161Z" transform="translate(-167.30969 -149.25413)" fill="#2f2e41"/><polygon points="276.512 586.351 289.985 586.351 296.395 534.384 276.51 534.385 276.512 586.351" fill="#a0616a"/><path d="M440.38534,731.20668l26.533-.00107h.00107a16.90978,16.90978,0,0,1,16.90888,16.90861v.54947l-43.4421.00161Z" transform="translate(-167.30969 -149.25413)" fill="#2f2e41"/><rect y="599.49174" width="606.09583" height="2" fill="#e6e6e6"/><polygon points="176.231 575.082 211.132 575.082 233.439 379.759 274.453 575.082 298.002 575.082 298.002 342.166 186.038 308.658 176.231 575.082" fill="#2f2e41"/><circle cx="235.73959" cy="106.36522" r="30.43595" fill="#a0616a"/><path d="M355.79986,462.816c32.65778,25.54025,68.70584,38.41382,109.51181,33.50735-17.23413-60.51126-22.346-120.56424-5.72076-179.7955l-34.32459-15.5278L386.683,298.5483l-28.04254,8.2478a18.75086,18.75086,0,0,0-13.45087,18.3573C346.17968,375.66686,342.82131,422.94042,355.79986,462.816Z" transform="translate(-167.30969 -149.25413)" fill="#e6e6e6"/><path d="M373.91982,240.31385c2.92814-5.52451,6.64853-16.53481,12.55845-18.5768a46.98415,46.98415,0,0,1,10.11483-2.15477l10.04535,3.86362-5.46716-4.25212q1.59663-.09513,3.1915-.15554l6.7778,2.6068-3.46759-2.697c6.31878-.06485,12.84115.59217,17.73721,4.43882,4.17413,3.27926,8.30957,15.70179,8.9783,20.96743a40.106,40.106,0,0,1-.7373,15.10854l-1.71643,1.63213a21.059,21.059,0,0,1-1.34668-4.28653,20.30084,20.30084,0,0,0-9.71756-13.18332l-.09345-.05271c-2.87887-1.62021-6.372-1.54551-9.6734-1.42669l-15.67917.56419c-3.77227.13576-7.83432.37444-10.77517,2.74068-1.98639,1.598-3.17655,3.957-4.30823,6.24113-1.4613,2.94945-4.317,14.07413-4.317,14.07413s-1.61563-2.09995-2.39-.537a54.04239,54.04239,0,0,1-2.2493-12.54357A24.57562,24.57562,0,0,1,373.91982,240.31385Z" transform="translate(-167.30969 -149.25413)" fill="#2f2e41"/><path d="M374.94249,482.76822a10.43245,10.43245,0,0,0-12.3122-10.21334l-18.2656-32.26164-7.53644,15.44722L354.28438,485.453a10.489,10.489,0,0,0,20.65811-2.68476Z" transform="translate(-167.30969 -149.25413)" fill="#a0616a"/><path d="M456.61429,518.6332a10.43248,10.43248,0,0,1,5.95355-14.84782L463.243,466.718l15.8873,10.89712-3.07679,33.52915a10.489,10.489,0,0,1-19.43917,7.48892Z" transform="translate(-167.30969 -149.25413)" fill="#a0616a"/><path d="M345.99285,478.3438l13.076-12.25879-6.71054-66.19745,7.76389-93.57538h0c-16.86542,5.30057-34.97443,19.53937-37.95716,36.9647l-10.66931,62.33148Z" transform="translate(-167.30969 -149.25413)" fill="#e6e6e6"/><polygon points="186.275 215.083 175.65 257.58 191.759 317.884 181.371 260.849 186.275 215.083" opacity="0.2" style="isolation:isolate"/><path d="M458.77364,501.22686l21.24857,2.45175L475.047,345.894a36.72689,36.72689,0,0,0-22.58291-32.74426l-7.58375-3.15988,2.04316,73.96133Z" transform="translate(-167.30969 -149.25413)" fill="#e6e6e6"/><polygon points="283.509 237.114 291.71 328.176 277.823 237.749 283.509 237.114" opacity="0.2" style="isolation:isolate"/></svg>